<?xml version="1.0" encoding="iso-8859-1"?>
<!-- Generator: Adobe Illustrator 26.1.0, SVG Export Plug-In . SVG Version: 6.00 Build 0)  -->
<svg version="1.1" id="Logos" xmlns="http://www.w3.org/2000/svg" xmlns:xlink="http://www.w3.org/1999/xlink" x="0px" y="0px"
	 viewBox="0 0 601.062 282.568" style="enable-background:new 0 0 601.062 282.568;" xml:space="preserve">
<path id="FAU_x5F_Logo_00000104684186293136336620000007570319548268214180_" style="fill:#04316A;" d="M48.719,66.643l9.744-9.744
	v176.95h-9.744V66.643z M77.95,58.462h116.925v-9.743H68.207v116.925h107.622v-9.744H77.95V58.462z M190.5,136.412H97.438V97.437
	h79.588l9.744-9.744H97.438V77.95h97.438v-9.744H87.694v77.95h93.19L190.5,136.412z M68.207,233.85h9.743v-48.719h9.744v40.538
	l9.743-9.744v-30.794h78.392v-9.744H68.207V233.85z M542.599,48.719v112.053c0,26.074-11.634,48.475-38.78,65.656l-0.219-0.287
	c17.838-14.146,29.256-32.316,29.256-55.788V48.719h-9.744V170.19c0,34.979-28.356,61.223-63.334,61.223
	s-63.334-26.244-63.334-61.223V56.899l-9.744,9.744v103.71c0,40.36,32.718,70.642,73.078,70.642c0.934,0,9.744,0,9.744,0
	c39.742,0,82.821-29.35,82.821-80.08c0-0.048,0-112.196,0-112.196H542.599z M459.777,221.67c29.58,0,53.562-21.908,53.59-51.48l0,0
	V56.899l-9.743,9.744v94.129c0,18.834-15.269,31.667-34.103,31.667c-18.834,0-34.103-12.833-34.103-31.667V48.719h-9.744v112.053
	c0,24.216,19.631,41.411,43.847,41.411c9.902,0,21.922-4.892,30.085-13.503l0.22,0.287c-7.654,14.195-21.804,22.96-40.048,22.96
	c-24.068,0-43.604-17.424-43.842-41.411h-0.005V48.719h-9.744v121.796h0.005C406.393,199.922,430.306,221.67,459.777,221.67z
	 M243.258,175.387l-24.64,58.463l9.745-0.001l-0.001,0.001h0.001l12.319-29.231h82.554l12.309,29.231h9.743l-16.41-38.976h-84.089
	l4.106-9.743h85.624l20.513,48.719h9.743l-24.615-58.463H243.258z M257.595,48.719l-71.61,169.857l6.202,8.42l75.151-178.277
	H257.595z M296.57,48.719l75.058,178.277l6.186-8.42L306.313,48.719H296.57z M237.601,165.643l-28.818,68.206h-9.743l73.17-173.562
	l40.258,95.612h9.744L277.082,48.719h9.744l49.231,116.925H237.601z M281.978,106.629l-20.764,49.27h41.509L281.978,106.629z
	 M241.702,155.899h9.769l25.639-60.835l-4.879-11.588L241.702,155.899z"/>
</svg>
