<?xml version="1.0" standalone="no"?>
<!DOCTYPE svg PUBLIC "-//W3C//DTD SVG 20010904//EN"
 "http://www.w3.org/TR/2001/REC-SVG-20010904/DTD/svg10.dtd">
<svg version="1.0" xmlns="http://www.w3.org/2000/svg"
 width="900.000000pt" height="900.000000pt" viewBox="0 0 900.000000 900.000000"
 preserveAspectRatio="xMidYMid meet">

<g transform="translate(0.000000,900.000000) scale(0.100000,-0.100000)"
fill="#019678" stroke="none">
<path d="M0 7764 l0 -1235 152 6 c84 4 178 10 208 15 30 5 118 12 195 15 77 3
151 8 165 11 53 10 101 14 295 25 110 7 205 15 210 19 6 4 34 8 64 9 55 2 132
9 381 35 225 24 330 36 440 51 58 8 146 18 195 21 50 4 95 10 100 13 6 4 28 9
50 10 22 2 69 7 105 11 36 5 118 16 183 24 65 9 121 17 125 20 4 2 50 9 102
16 52 6 104 13 115 15 11 2 65 11 120 19 108 17 234 38 360 60 44 7 130 21
190 31 61 9 117 20 125 23 8 3 49 11 90 18 41 7 109 20 150 28 41 9 113 22
160 31 46 8 91 17 100 21 8 3 49 12 90 19 75 14 159 31 280 59 36 8 108 24
160 36 130 29 203 46 280 65 99 24 167 41 260 63 47 12 112 28 145 37 33 9 85
22 115 30 30 7 91 23 135 35 115 31 174 47 225 60 25 6 54 15 65 20 11 4 58
18 105 30 47 12 111 31 143 41 31 10 64 19 72 19 8 0 23 4 33 9 9 6 51 19 92
31 41 12 82 25 90 29 9 5 43 14 75 21 33 8 65 17 70 20 6 4 26 11 45 15 19 4
40 11 45 15 6 4 26 11 45 15 19 4 41 11 50 15 8 5 74 27 145 50 72 22 139 45
150 49 11 5 58 21 105 36 47 14 94 30 105 35 11 4 67 25 125 45 153 54 213 76
230 85 9 4 30 11 48 14 17 4 34 12 37 17 4 5 14 9 23 9 9 1 35 9 57 20 22 11
47 20 55 20 8 0 26 6 40 13 14 7 54 24 90 37 36 13 76 30 90 37 14 7 33 13 42
13 9 0 19 4 22 9 3 5 18 12 33 16 27 6 63 21 128 50 17 8 55 24 85 35 92 37
202 82 260 108 30 13 72 31 93 39 l37 15 0 244 0 244 -4500 0 -4500 0 0 -1236z"/>
<path d="M8945 8255 c-27 -13 -72 -33 -100 -45 -27 -12 -63 -27 -80 -35 -16
-7 -52 -23 -80 -34 -27 -12 -59 -26 -70 -31 -11 -5 -42 -18 -70 -30 -27 -12
-59 -25 -70 -30 -11 -5 -49 -21 -85 -35 -36 -14 -74 -30 -85 -35 -11 -5 -42
-18 -70 -28 -54 -22 -212 -86 -260 -106 -16 -7 -59 -23 -95 -36 -36 -13 -69
-27 -75 -32 -5 -4 -16 -8 -25 -8 -8 0 -28 -7 -44 -15 -15 -8 -33 -15 -40 -15
-6 -1 -29 -9 -51 -20 -22 -11 -45 -19 -51 -20 -7 0 -25 -7 -40 -15 -16 -8 -36
-15 -44 -15 -8 0 -33 -9 -55 -20 -22 -11 -48 -19 -57 -20 -9 0 -20 -4 -23 -10
-3 -5 -13 -10 -22 -10 -8 0 -29 -6 -46 -14 -18 -7 -68 -26 -112 -41 -44 -15
-94 -33 -112 -41 -17 -8 -38 -14 -46 -14 -9 0 -18 -4 -21 -9 -3 -5 -23 -12
-43 -16 -21 -4 -42 -10 -48 -14 -5 -5 -50 -20 -100 -35 -49 -15 -99 -32 -110
-36 -22 -10 -184 -63 -305 -100 -41 -12 -84 -26 -95 -31 -11 -4 -60 -20 -110
-34 -49 -15 -121 -38 -160 -50 -38 -13 -86 -26 -105 -30 -19 -4 -39 -11 -45
-15 -5 -4 -26 -11 -45 -14 -19 -4 -44 -11 -55 -16 -11 -5 -47 -16 -80 -25
-108 -29 -159 -43 -215 -60 -58 -17 -124 -35 -360 -99 -71 -19 -319 -83 -390
-101 -30 -7 -84 -21 -120 -30 -36 -9 -85 -20 -109 -25 -23 -6 -62 -15 -85 -21
-22 -7 -70 -18 -106 -26 -36 -7 -93 -20 -127 -28 -138 -33 -191 -45 -263 -60
-41 -8 -84 -17 -95 -20 -66 -15 -279 -60 -380 -80 -38 -7 -119 -23 -180 -35
-60 -12 -144 -28 -185 -36 -41 -7 -113 -20 -160 -29 -409 -76 -1052 -176
-1490 -231 -63 -8 -167 -21 -230 -29 -97 -12 -270 -32 -445 -50 -22 -2 -92 -9
-155 -15 -63 -6 -151 -15 -195 -21 -44 -5 -136 -15 -205 -20 -69 -5 -146 -12
-172 -15 l-48 -6 0 -504 0 -504 30 0 c17 0 63 7 103 15 40 8 99 19 132 24 33
6 95 17 137 26 160 31 226 44 338 65 182 33 244 46 260 52 8 3 44 11 80 17 36
6 97 18 135 26 39 9 113 24 165 35 52 10 127 26 165 35 39 9 99 22 135 30 137
29 410 91 573 130 34 8 100 23 147 34 47 11 112 27 145 35 33 8 83 20 110 26
28 6 59 15 70 20 11 4 47 13 80 20 66 13 73 14 95 23 8 3 35 10 60 16 25 5 72
17 105 26 33 9 85 23 115 30 30 7 123 32 205 55 83 22 166 45 185 50 19 5 60
16 90 25 51 15 130 37 240 65 25 6 54 16 65 21 11 5 38 13 60 18 22 5 72 19
110 31 39 11 88 25 110 31 22 5 51 14 65 18 14 5 59 19 100 31 41 12 84 26 95
31 11 5 38 13 60 18 22 5 92 26 155 46 63 20 160 50 215 66 55 17 107 34 115
38 9 5 31 12 50 16 19 4 40 11 45 15 6 4 26 11 45 15 19 4 41 11 50 15 8 5
141 49 295 99 154 51 289 96 300 100 11 5 49 19 85 31 36 12 79 29 97 36 17 8
36 14 43 14 7 0 26 6 43 14 18 7 61 24 97 36 36 12 74 26 85 31 27 12 102 38
145 51 19 5 39 14 44 19 6 5 17 9 25 9 9 1 34 9 56 20 22 11 48 19 57 20 9 0
19 4 22 9 3 5 18 12 33 16 24 5 171 60 228 84 11 5 65 26 120 46 55 21 114 44
130 51 17 7 73 29 125 50 86 33 121 48 215 89 17 7 73 29 125 49 52 20 123 50
158 66 35 17 65 30 68 30 3 0 26 9 52 21 26 11 63 27 82 35 19 9 44 19 55 24
11 5 43 19 70 30 28 12 70 31 95 42 25 11 54 24 65 28 11 5 55 25 98 44 44 20
80 36 82 36 2 0 51 23 110 50 59 28 108 50 110 50 3 0 55 24 117 54 62 29 139
66 171 80 l57 27 0 235 c0 129 -1 234 -2 233 -2 0 -25 -11 -53 -24z"/>
<path d="M8835 7361 c-88 -43 -203 -99 -255 -124 -161 -76 -313 -148 -355
-167 -82 -37 -182 -83 -235 -107 -30 -13 -77 -35 -105 -48 -27 -13 -68 -31
-90 -40 -22 -10 -58 -26 -80 -35 -50 -23 -96 -43 -160 -70 -27 -12 -70 -31
-95 -42 -50 -22 -62 -27 -135 -58 -27 -12 -59 -25 -70 -30 -11 -5 -65 -27
-120 -50 -55 -23 -109 -45 -120 -50 -50 -22 -95 -41 -155 -65 -36 -14 -74 -30
-85 -35 -11 -5 -63 -26 -115 -46 -52 -20 -113 -44 -135 -54 -22 -9 -62 -25
-90 -35 -27 -10 -54 -21 -60 -25 -5 -4 -46 -20 -90 -35 -44 -16 -84 -32 -89
-37 -6 -4 -16 -8 -24 -8 -7 0 -34 -9 -60 -21 -26 -11 -56 -24 -67 -29 -11 -5
-38 -14 -60 -21 -22 -6 -44 -15 -49 -20 -6 -5 -17 -9 -25 -9 -9 0 -29 -7 -45
-15 -15 -8 -33 -15 -40 -15 -6 -1 -29 -9 -51 -20 -22 -11 -48 -19 -57 -20 -9
0 -19 -4 -22 -9 -3 -5 -28 -14 -56 -21 -28 -7 -53 -16 -56 -21 -3 -5 -13 -9
-22 -9 -9 -1 -35 -9 -57 -20 -22 -11 -46 -19 -53 -20 -7 0 -20 -4 -30 -9 -9
-5 -53 -22 -97 -37 -44 -14 -94 -33 -112 -40 -17 -8 -36 -14 -42 -14 -6 0 -19
-4 -29 -10 -19 -10 -219 -80 -422 -146 -74 -24 -142 -48 -150 -53 -9 -5 -31
-12 -50 -16 -19 -4 -39 -11 -45 -15 -5 -4 -26 -11 -45 -15 -19 -4 -41 -11 -50
-15 -8 -5 -116 -41 -240 -80 -124 -40 -232 -75 -240 -78 -20 -7 -19 -7 -70
-21 -25 -6 -54 -16 -65 -21 -11 -4 -42 -15 -70 -23 -131 -38 -232 -70 -250
-77 -42 -16 -161 -50 -175 -50 -9 0 -20 -4 -25 -9 -6 -5 -30 -14 -55 -19 -25
-6 -76 -20 -115 -32 -38 -12 -91 -28 -117 -36 -27 -8 -72 -21 -100 -30 -29 -9
-84 -24 -123 -34 -38 -10 -95 -26 -125 -35 -30 -9 -73 -21 -95 -27 -22 -5 -47
-12 -55 -15 -8 -3 -71 -21 -140 -40 -69 -19 -147 -40 -175 -48 -90 -24 -158
-43 -300 -80 -77 -20 -165 -43 -195 -51 -65 -18 -120 -32 -290 -73 -69 -17
-141 -36 -160 -41 -19 -6 -55 -15 -80 -21 -25 -6 -70 -16 -100 -24 -30 -8 -86
-21 -125 -30 -38 -9 -77 -18 -85 -21 -8 -2 -46 -11 -85 -20 -38 -9 -97 -23
-130 -31 -94 -23 -172 -41 -275 -63 -52 -12 -122 -28 -155 -35 -33 -8 -84 -20
-112 -26 l-53 -12 0 -874 c0 -696 3 -874 12 -870 7 3 49 20 93 37 72 27 100
39 170 70 11 5 65 27 120 50 55 23 109 45 120 50 72 32 115 50 120 50 3 0 27
9 53 21 26 11 63 27 82 35 19 9 44 19 55 24 11 5 49 21 85 35 36 14 74 30 85
35 11 5 43 18 70 30 28 11 62 27 77 35 14 8 31 15 36 15 6 0 45 16 89 36 43
19 87 39 98 44 11 5 41 18 67 29 26 12 49 21 52 21 3 0 41 16 83 36 93 42 104
47 166 73 26 12 68 30 95 42 26 11 56 24 67 29 11 5 41 18 68 29 83 36 141 62
174 77 17 8 36 14 42 14 6 0 11 5 11 10 0 6 5 10 11 10 9 0 47 15 144 60 22
10 72 32 110 50 105 47 103 46 198 90 49 22 91 40 93 40 3 0 104 46 209 95 28
13 82 38 120 55 66 30 108 50 300 140 44 21 114 54 155 73 41 19 105 48 142
66 37 17 72 31 78 31 5 0 10 5 10 10 0 6 5 10 11 10 6 0 54 21 107 46 54 26
149 71 212 101 63 31 189 91 280 135 212 102 1354 672 1485 741 55 29 179 94
275 144 304 157 510 266 620 326 30 17 84 46 120 64 36 19 72 38 80 43 13 8
87 49 250 137 49 27 173 94 315 173 28 16 70 39 95 51 25 13 47 27 48 32 2 4
7 7 12 7 5 0 47 23 95 50 48 28 89 50 91 50 3 0 43 23 90 50 47 28 86 50 89
50 4 0 386 221 415 240 8 6 22 13 30 17 24 11 504 294 513 302 4 4 6 98 5 209
l-3 201 -160 -78z"/>
<path d="M8890 6259 c-58 -38 -112 -73 -120 -78 -75 -50 -132 -87 -235 -151
-66 -41 -122 -77 -125 -81 -3 -3 -27 -19 -53 -35 -27 -16 -59 -36 -72 -44 -13
-8 -59 -37 -102 -63 -43 -26 -112 -69 -153 -96 -156 -101 -479 -300 -825 -509
-82 -50 -154 -95 -160 -99 -13 -10 -387 -232 -785 -465 -168 -98 -312 -183
-320 -188 -8 -6 -22 -13 -30 -17 -8 -3 -34 -19 -57 -35 -23 -15 -45 -28 -49
-28 -3 0 -60 -31 -125 -70 -65 -38 -123 -70 -128 -70 -6 0 -11 -4 -11 -9 0 -5
-10 -13 -21 -16 -12 -4 -83 -43 -157 -86 -74 -44 -136 -79 -139 -79 -3 0 -47
-25 -98 -55 -52 -30 -99 -55 -104 -55 -6 0 -11 -4 -11 -10 0 -5 -5 -10 -11
-10 -6 0 -37 -15 -68 -34 -31 -19 -81 -47 -111 -63 -129 -70 -196 -106 -205
-113 -11 -8 -220 -123 -425 -233 -30 -16 -59 -33 -65 -37 -5 -4 -53 -30 -105
-57 -90 -48 -165 -88 -290 -156 -177 -96 -303 -163 -420 -223 -52 -27 -97 -51
-100 -54 -3 -3 -41 -24 -85 -46 -44 -23 -138 -72 -210 -109 -71 -38 -188 -98
-260 -134 -71 -36 -132 -68 -135 -71 -12 -12 -1342 -680 -1715 -861 -143 -70
-336 -164 -430 -209 -93 -46 -216 -105 -272 -131 l-103 -49 0 -665 c0 -399 4
-665 9 -665 5 0 51 22 103 49 51 26 156 81 233 121 77 40 174 91 215 113 41
22 111 59 155 82 44 23 112 59 150 80 39 21 99 53 135 73 36 19 88 47 115 62
28 15 82 44 120 65 138 74 200 108 210 115 6 4 46 27 90 50 136 73 178 96 233
129 29 17 55 31 59 31 3 0 39 20 80 45 40 25 76 45 80 45 6 0 160 87 330 186
50 30 94 54 96 54 3 0 88 49 190 108 101 60 191 111 198 114 11 4 659 385
1299 764 36 21 67 41 70 44 3 4 76 49 163 101 87 52 169 101 182 109 13 8 45
28 72 44 26 16 129 79 228 141 99 62 212 131 250 154 39 24 115 71 170 106 55
35 124 78 154 97 29 18 63 40 76 48 13 8 47 30 76 48 30 18 88 55 129 82 41
26 100 63 130 81 30 17 57 34 60 38 3 3 13 11 22 16 35 20 177 111 328 210 85
56 166 108 179 115 14 7 30 17 35 22 6 5 61 41 121 80 411 266 1041 686 1605
1069 89 61 174 119 330 228 36 24 99 68 140 95 41 28 77 53 80 56 7 7 48 36
166 116 54 37 107 74 117 83 16 16 17 47 15 438 l-3 421 -105 -69z"/>
<path d="M8930 5188 c-36 -27 -84 -62 -108 -78 -23 -16 -48 -34 -55 -40 -11
-10 -178 -134 -222 -166 -11 -7 -61 -44 -111 -81 -51 -38 -102 -75 -114 -83
-12 -8 -61 -43 -108 -78 -230 -167 -356 -257 -392 -282 -26 -18 -120 -86 -135
-97 -5 -5 -21 -16 -35 -25 -14 -9 -70 -48 -125 -87 -195 -138 -270 -190 -345
-243 -109 -76 -279 -193 -395 -272 -60 -41 -180 -123 -265 -181 -163 -112
-860 -576 -1065 -710 -328 -214 -534 -348 -605 -393 -36 -22 -70 -46 -77 -51
-7 -6 -15 -11 -18 -11 -3 0 -49 -28 -103 -63 -53 -35 -117 -75 -142 -90 -25
-15 -72 -45 -105 -67 -33 -21 -94 -60 -135 -85 -41 -25 -113 -70 -160 -100
-47 -29 -116 -73 -155 -97 -38 -23 -71 -46 -73 -50 -2 -5 -10 -8 -17 -8 -8 0
-20 -6 -27 -13 -7 -7 -60 -41 -118 -76 -58 -34 -159 -96 -225 -137 -66 -41
-185 -113 -265 -161 -80 -48 -147 -90 -150 -93 -3 -4 -17 -13 -32 -21 -21 -11
-567 -336 -638 -380 -8 -5 -204 -119 -435 -254 -231 -135 -427 -250 -435 -255
-8 -6 -27 -15 -42 -21 -16 -6 -28 -15 -28 -20 0 -5 -5 -9 -11 -9 -6 0 -63 -31
-127 -69 -64 -37 -122 -70 -128 -72 -5 -2 -72 -40 -148 -84 l-137 -80 592 -3
c326 -1 595 2 598 6 3 5 13 12 21 16 8 4 24 12 35 19 11 7 126 76 255 153 354
213 667 404 1060 651 47 29 114 71 150 93 127 80 287 181 395 251 61 39 148
95 195 125 47 29 92 58 100 64 8 5 62 41 120 79 543 356 648 425 671 441 15
11 116 79 225 153 206 138 394 266 477 324 86 60 141 98 222 153 44 30 85 59
92 65 6 5 33 25 60 43 182 125 330 230 519 367 45 33 92 67 104 75 23 16 45
32 351 255 105 77 209 152 231 168 21 15 45 32 51 38 7 6 109 82 227 171 118
88 226 169 240 179 14 11 106 81 205 156 200 151 360 273 664 506 112 86 208
158 213 159 5 2 7 120 6 264 l-3 260 -65 -48z"/>
<path d="M8900 4269 c-52 -45 -106 -91 -120 -103 -22 -18 -87 -72 -155 -127
-11 -10 -49 -41 -84 -70 -35 -30 -80 -67 -101 -84 -20 -16 -73 -59 -116 -95
-212 -173 -290 -236 -569 -460 -165 -132 -308 -247 -318 -256 -41 -34 -633
-497 -787 -615 -194 -149 -267 -205 -275 -211 -39 -32 -686 -520 -780 -588
-108 -78 -140 -103 -172 -130 -6 -5 -30 -22 -51 -37 -44 -31 -265 -193 -410
-300 -51 -37 -123 -90 -160 -116 -37 -27 -138 -100 -226 -164 -87 -63 -181
-130 -207 -149 -115 -80 -150 -105 -261 -185 -65 -46 -165 -118 -224 -159 -59
-41 -130 -91 -158 -111 -28 -19 -80 -56 -116 -81 -36 -25 -92 -64 -125 -87
-33 -23 -91 -63 -129 -89 l-69 -47 2853 -3 c1569 -1 2855 -1 2857 1 2 2 2 981
1 2175 l-3 2172 -95 -81z"/>
</g>
</svg>
